<?xml version="1.0" encoding="UTF-8" standalone="no"?>
<!-- Created with Inkscape (http://www.inkscape.org/) -->

<svg
   version="1.1"
   id="svg1"
   width="21.459187"
   height="20"
   viewBox="0 0 21.459187 20"
   xmlns="http://www.w3.org/2000/svg"
   xmlns:svg="http://www.w3.org/2000/svg">
  <defs
     id="defs1" />
  <g
     id="g1"
     transform="translate(0,-1.02236e-4)">
    <path
       id="path1"
       d="m 4.1855018,20.000102 c -1.7742124,0 -2.9781005,-1.079751 -3.6186907,-3.239255 C 0.18737557,15.52651 0,13.724192 0,11.353891 0,10.01884 0.23304837,8.8699933 0.70500059,7.9096935 1.2858649,6.6976078 2.1911231,6.0886372 3.4125776,6.0886372 c 0.9064293,0 1.5095444,0.5398759 1.8210563,1.6149432 l 0.3934887,3.0190886 c 0.1370184,1.09849 0.4754655,1.655932 1.010657,1.679354 L 19.245813,0.29287657 c 0.196745,-0.19674435 0.571496,-0.292774334 1.133623,-0.292774334 0.719053,0 1.079751,0.264667994 1.079751,0.791661784 V 2.8821727 c 0,0.6171683 -0.168638,1.0973182 -0.511769,1.4404497 L 6.8801967,18.627576 c -0.8923761,0.914627 -1.7929499,1.372526 -2.6946949,1.372526 z"
       style="fill:#008000;fill-opacity:1;fill-rule:nonzero;stroke:none;stroke-width:1.1711" />
  </g>
</svg>
