<?xml version="1.0" encoding="UTF-8" standalone="no"?>
<!-- Created with Inkscape (http://www.inkscape.org/) -->

<svg
   version="1.1"
   id="svg1"
   width="18.606178"
   height="22"
   viewBox="0 0 18.606179 22"
   xmlns="http://www.w3.org/2000/svg"
   xmlns:svg="http://www.w3.org/2000/svg">
  <defs
     id="defs1" />
  <g
     id="g1"
     transform="translate(0,3.6376351e-4)">
    <path
       id="path1"
       d="M 0.73359073,18.399894 0,17.47454 5.2432432,11.236444 C 2.9060489,6.751245 1.7348777,4.1321974 1.7348777,3.3934586 c 0,-0.3925354 0.2213643,-0.7940798 0.6576577,-1.2072072 L 2.7696268,2.0356723 C 3.0720721,2.1617984 3.3075933,2.2930725 3.4684685,2.4333557 H 3.5842986 C 3.996139,1.6032398 4.4749035,1.1862514 5.016731,1.1862514 L 8.8777349,6.9378602 C 12.890605,2.3123775 15.248391,-3.637635e-4 15.952381,-3.637635e-4 c 0.512226,0 0.944659,0.2561132535 1.29601,0.7747747735 V 1.4886967 c 0.904762,0.3166023 1.357787,0.7683398 1.357787,1.3564994 l -6.952381,8.1441439 4.407979,5.073359 0.151866,0.451738 c 0,0.342342 -0.146718,0.759331 -0.432432,1.262548 -0.276705,0.467181 -0.583012,0.718147 -0.925354,0.754183 l -0.110682,-0.357787 c -0.01544,1.106822 -0.371944,1.658945 -1.075933,1.658945 -0.24067,-0.150579 -0.47233,-0.380952 -0.698842,-0.698842 l -0.960103,1.056628 -0.356499,0.15058 C 11.176319,20.264759 9.9292149,18.756393 7.9176319,15.815595 l -4.5997426,5.92278 -0.5070785,0.261261 C 2.4942085,21.722931 2.2779923,21.321387 2.1518662,20.793716 H 1.1866152 C 0.72329472,20.290499 0.39253539,19.737088 0.19047619,19.133484 Z"
       style="fill:#a02128;fill-opacity:1;fill-rule:nonzero;stroke:none;stroke-width:1.287" />
  </g>
</svg>
