<?xml version="1.0" encoding="UTF-8" standalone="no"?>
<!-- Created with Inkscape (http://www.inkscape.org/) -->

<svg
   width="21.435379"
   height="22.000082"
   viewBox="0 0 5.6714441 5.8208551"
   version="1.1"
   id="svg1"
   xmlns="http://www.w3.org/2000/svg"
   xmlns:svg="http://www.w3.org/2000/svg">
  <defs
     id="defs1" />
  <g
     id="layer1"
     transform="translate(0,2.3708821e-5)">
    <path
       id="path1"
       style="fill:#a02128;fill-opacity:1;fill-rule:nonzero;stroke:none;stroke-width:0.500856;stroke-linecap:round"
       d="m 2.7924791,0.78804166 c 0.039782,0.0208662 0.1224509,0.0990675 0.2225333,0.13556817 0.150992,0.0550678 0.331375,0.0776907 0.5702932,0.16312867 0.039624,0.014169 0.080761,0.030372 0.1227508,0.049167 0.1266893,0.056704 0.2770621,0.1366331 0.4251014,0.2629096 C 4.2686159,1.5143595 4.405512,1.671689 4.517954,1.8886133 4.6138657,2.0736473 4.6931615,2.3042342 4.7344215,2.5888121 4.8065047,3.0867939 4.6905793,3.6264309 4.3838676,4.0756355 4.2403378,4.2858465 4.0599708,4.4677387 3.8511675,4.6065878 3.6431053,4.744944 3.4086589,4.8393984 3.1552912,4.8786452 2.8835472,4.920728 2.6213538,4.9058852 2.3803885,4.8476787 2.1272055,4.7865209 1.8995041,4.6781051 1.7060857,4.5390759 1.6049532,4.4663817 1.5136358,4.3856691 1.432522,4.2992147 1.3497013,4.210941 1.2730621,4.1123541 1.2055879,4.0035481 1.0799,3.8008694 0.98557184,3.5618929 0.94456727,3.2902765 0.90477877,3.0267829 0.91858273,2.7566663 0.98383527,2.4939766 1.0476001,2.2372759 1.1594694,1.9922032 1.3118952,1.7748699 1.4641481,1.5577832 1.6537676,1.3727692 1.8693993,1.2322585 2.0893814,1.0889132 2.3336518,0.99355571 2.5924558,0.95365203 2.7037523,0.93473408 2.7954463,0.92722301 2.8475672,0.92596935 3.364815,0.91342997 3.3836601,-0.01309872 2.8385416,1.1631857e-4 2.7616986,0.00196432 2.6290308,0.00441332 2.4641186,0.02758982 2.0706358,0.08734376 1.7019494,0.23140337 1.3742896,0.44428762 1.054146,0.65228853 0.77802996,0.92286424 0.55901961,1.2351431 0.33980854,1.5477081 0.17907887,1.9002018 0.08766316,2.2710137 -0.00605371,2.6511598 -0.02595323,3.0463447 0.03436245,3.435186 0.09683719,3.8378842 0.23970525,4.1950449 0.43093802,4.4980053 0.5333063,4.6601823 0.64917405,4.8063367 0.77379399,4.9363814 0.89582922,5.063729 1.0321698,5.18222 1.1822148,5.2887068 1.469044,5.4922694 1.8042905,5.6506093 2.1755433,5.740054 2.5294187,5.825312 2.9123315,5.8468973 3.306219,5.7864282 3.6950299,5.7267369 4.0528301,5.5824165 4.3660108,5.3745605 4.6791018,5.1667642 4.9431305,4.8985266 5.1494113,4.5950943 5.5877177,3.9503599 5.752151,3.1726783 5.6346354,2.4483564 5.5718657,2.062332 5.4520266,1.7332024 5.2962921,1.4604327 5.1124265,1.1383906 4.8842617,0.90437028 4.6524222,0.74047361 4.4014368,0.56304194 4.1529686,0.47216897 3.9555437,0.4286145 3.8898766,0.4141275 3.8271322,0.40345561 3.7680666,0.3958253 3.4222538,0.351152 3.1397774,0.53080941 2.9908867,0.60359782 2.882909,0.65638504 2.8241356,0.75594561 2.7924791,0.78804166 Z" />
  </g>
</svg>
